<?xml version="1.0" encoding="UTF-8" standalone="no"?>
<!-- Generator: Adobe Illustrator 19.0.0, SVG Export Plug-In . SVG Version: 6.00 Build 0)  -->

<svg
   xmlns:dc="http://purl.org/dc/elements/1.1/"
   xmlns:cc="http://creativecommons.org/ns#"
   xmlns:rdf="http://www.w3.org/1999/02/22-rdf-syntax-ns#"
   xmlns:svg="http://www.w3.org/2000/svg"
   xmlns="http://www.w3.org/2000/svg"
   xmlns:sodipodi="http://sodipodi.sourceforge.net/DTD/sodipodi-0.dtd"
   xmlns:inkscape="http://www.inkscape.org/namespaces/inkscape"
   version="1.1"
   id="Capa_1"
   x="0px"
   y="0px"
   viewBox="0 0 60 60"
   style="enable-background:new 0 0 60 60;"
   xml:space="preserve"
   sodipodi:docname="next.svg"
   inkscape:version="0.92.3 (2405546, 2018-03-11)"><metadata
   id="metadata45"><rdf:RDF><cc:Work
       rdf:about=""><dc:format>image/svg+xml</dc:format><dc:type
         rdf:resource="http://purl.org/dc/dcmitype/StillImage" /><dc:title></dc:title></cc:Work></rdf:RDF></metadata><defs
   id="defs43">
	
	
	















</defs><sodipodi:namedview
   pagecolor="#ffffff"
   bordercolor="#666666"
   borderopacity="1"
   objecttolerance="10"
   gridtolerance="10"
   guidetolerance="10"
   inkscape:pageopacity="0"
   inkscape:pageshadow="2"
   inkscape:window-width="1303"
   inkscape:window-height="713"
   id="namedview41"
   showgrid="false"
   inkscape:zoom="2.7812867"
   inkscape:cx="31.435986"
   inkscape:cy="-1.5360768"
   inkscape:window-x="65"
   inkscape:window-y="27"
   inkscape:window-maximized="1"
   inkscape:current-layer="Capa_1" />
















<path
   inkscape:connector-curvature="0"
   id="path2"
   d="m 28.283,45.884 c 0.326,0.174 0.723,0.15 1.031,-0.058 l 22,-15 C 51.586,30.64 51.75,30.331 51.75,30 c 0,-0.331 -0.164,-0.64 -0.437,-0.826 l -22,-15 C 29.144,14.059 28.947,14 28.75,14 28.59,14 28.429,14.038 28.283,14.116 27.955,14.289 27.75,14.629 27.75,15 v 30 c 0,0.371 0.205,0.711 0.533,0.884 z M 29.75,16.893 48.975,30 29.75,43.107 Z"
   style="stroke:#000000;stroke-width:1.5;stroke-miterlimit:4;stroke-dasharray:none;stroke-opacity:1" /><path
   inkscape:connector-curvature="0"
   id="path4"
   d="M 30,60 C 46.542,60 60,46.542 60,30 60,13.458 46.542,0 30,0 13.458,0 0,13.458 0,30 0,46.542 13.458,60 30,60 Z M 30,2 C 45.439,2 58,14.561 58,30 58,45.439 45.439,58 30,58 14.561,58 2,45.439 2,30 2,14.561 14.561,2 30,2 Z"
   style="stroke:#000000;stroke-width:2;stroke-miterlimit:4;stroke-dasharray:none;stroke-opacity:1" /><rect
   style="opacity:1;fill:none;fill-opacity:1;stroke:#010000;stroke-width:2.70000005;stroke-linecap:round;stroke-linejoin:round;stroke-miterlimit:4;stroke-dasharray:none;stroke-dashoffset:0;stroke-opacity:1;paint-order:fill markers stroke"
   id="rect1014"
   width="7.3000002"
   height="32"
   x="-19.65"
   y="-46"
   transform="scale(-1)" /></svg>