<?xml version="1.0" encoding="UTF-8" standalone="no"?>
<!-- Generator: Adobe Illustrator 19.0.0, SVG Export Plug-In . SVG Version: 6.00 Build 0)  -->

<svg
   xmlns:dc="http://purl.org/dc/elements/1.1/"
   xmlns:cc="http://creativecommons.org/ns#"
   xmlns:rdf="http://www.w3.org/1999/02/22-rdf-syntax-ns#"
   xmlns:svg="http://www.w3.org/2000/svg"
   xmlns="http://www.w3.org/2000/svg"
   xmlns:sodipodi="http://sodipodi.sourceforge.net/DTD/sodipodi-0.dtd"
   xmlns:inkscape="http://www.inkscape.org/namespaces/inkscape"
   version="1.1"
   id="Capa_1"
   x="0px"
   y="0px"
   viewBox="0 0 60 60"
   style="enable-background:new 0 0 60 60;"
   xml:space="preserve"
   sodipodi:docname="pause.svg"
   inkscape:version="0.92.3 (2405546, 2018-03-11)"><metadata
   id="metadata45"><rdf:RDF><cc:Work
       rdf:about=""><dc:format>image/svg+xml</dc:format><dc:type
         rdf:resource="http://purl.org/dc/dcmitype/StillImage" /><dc:title /></cc:Work></rdf:RDF></metadata><defs
   id="defs43">
	
	
	















</defs><sodipodi:namedview
   pagecolor="#ffffff"
   bordercolor="#666666"
   borderopacity="1"
   objecttolerance="10"
   gridtolerance="10"
   guidetolerance="10"
   inkscape:pageopacity="0"
   inkscape:pageshadow="2"
   inkscape:window-width="1303"
   inkscape:window-height="713"
   id="namedview41"
   showgrid="false"
   inkscape:zoom="3.9333333"
   inkscape:cx="17.405677"
   inkscape:cy="19.983057"
   inkscape:window-x="65"
   inkscape:window-y="27"
   inkscape:window-maximized="1"
   inkscape:current-layer="Capa_1" />
<path
   inkscape:connector-curvature="0"
   id="path4"
   d="M 30,60 C 46.542,60 60,46.542 60,30 60,13.458 46.542,0 30,0 13.458,0 0,13.458 0,30 0,46.542 13.458,60 30,60 Z M 30,2 C 45.439,2 58,14.561 58,30 58,45.439 45.439,58 30,58 14.561,58 2,45.439 2,30 2,14.561 14.561,2 30,2 Z"
   style="stroke:#000000;stroke-width:2;stroke-miterlimit:4;stroke-dasharray:none;stroke-opacity:1" /><path
   inkscape:connector-curvature="0"
   id="path6"
   d="m 27.224577,14 h -7 v 32 h 7 z m -2,30 h -3 V 16 h 3 z"
   style="stroke:#000000;stroke-width:0.8;stroke-miterlimit:2.79999995;stroke-dasharray:none;stroke-opacity:1" />















<path
   inkscape:connector-curvature="0"
   id="path6-3"
   d="m 39.775424,14 h -7 v 32 h 7 z m -2,30 h -3 V 16 h 3 z"
   style="stroke:#000000;stroke-width:0.8;stroke-miterlimit:2.79999995;stroke-dasharray:none;stroke-opacity:1" /></svg>