<?xml version="1.0" encoding="UTF-8" standalone="no"?>
<!-- Generator: Adobe Illustrator 19.0.0, SVG Export Plug-In . SVG Version: 6.00 Build 0)  -->

<svg
   xmlns:dc="http://purl.org/dc/elements/1.1/"
   xmlns:cc="http://creativecommons.org/ns#"
   xmlns:rdf="http://www.w3.org/1999/02/22-rdf-syntax-ns#"
   xmlns:svg="http://www.w3.org/2000/svg"
   xmlns="http://www.w3.org/2000/svg"
   xmlns:sodipodi="http://sodipodi.sourceforge.net/DTD/sodipodi-0.dtd"
   xmlns:inkscape="http://www.inkscape.org/namespaces/inkscape"
   version="1.1"
   id="Capa_1"
   x="0px"
   y="0px"
   viewBox="0 0 60 60"
   style="enable-background:new 0 0 60 60;"
   xml:space="preserve"
   sodipodi:docname="play.svg"
   inkscape:version="0.92.3 (2405546, 2018-03-11)"><metadata
   id="metadata45"><rdf:RDF><cc:Work
       rdf:about=""><dc:format>image/svg+xml</dc:format><dc:type
         rdf:resource="http://purl.org/dc/dcmitype/StillImage" /><dc:title /></cc:Work></rdf:RDF></metadata><defs
   id="defs43">
	
	
	















</defs><sodipodi:namedview
   pagecolor="#ffffff"
   bordercolor="#666666"
   borderopacity="1"
   objecttolerance="10"
   gridtolerance="10"
   guidetolerance="10"
   inkscape:pageopacity="0"
   inkscape:pageshadow="2"
   inkscape:window-width="1303"
   inkscape:window-height="713"
   id="namedview41"
   showgrid="false"
   inkscape:zoom="3.9333333"
   inkscape:cx="-1.0265266"
   inkscape:cy="30.152549"
   inkscape:window-x="65"
   inkscape:window-y="27"
   inkscape:window-maximized="1"
   inkscape:current-layer="Capa_1" />
<path
   inkscape:connector-curvature="0"
   id="path2"
   d="m 20.533,45.884 c 0.326,0.174 0.723,0.15 1.031,-0.058 l 22,-15 C 43.836,30.64 44,30.331 44,30 44,29.669 43.836,29.36 43.563,29.174 l -22,-15 C 21.394,14.059 21.197,14 21,14 20.84,14 20.679,14.038 20.533,14.116 20.205,14.289 20,14.629 20,15 v 30 c 0,0.371 0.205,0.711 0.533,0.884 z M 22,16.893 41.225,30 22,43.107 Z"
   style="stroke:#000000;stroke-width:1.5;stroke-miterlimit:4;stroke-dasharray:none;stroke-opacity:1" /><path
   inkscape:connector-curvature="0"
   id="path4"
   d="M 30,60 C 46.542,60 60,46.542 60,30 60,13.458 46.542,0 30,0 13.458,0 0,13.458 0,30 0,46.542 13.458,60 30,60 Z M 30,2 C 45.439,2 58,14.561 58,30 58,45.439 45.439,58 30,58 14.561,58 2,45.439 2,30 2,14.561 14.561,2 30,2 Z"
   style="stroke:#000000;stroke-width:2.2;stroke-miterlimit:4;stroke-dasharray:none;stroke-opacity:1" />















</svg>